<svg width="24" height="22" viewBox="0 0 24 22" fill="none" xmlns="http://www.w3.org/2000/svg">
<path d="M18.9645 21.5C20.9685 21.5 22.5 19.7675 22.5 17.75V6.5H1.5V17.75C1.5 19.7675 3.0315 21.5 5.0355 21.5H18.9645ZM8.25 9.5H15.75C15.9489 9.5 16.1397 9.57902 16.2803 9.71967C16.421 9.86032 16.5 10.0511 16.5 10.25C16.5 10.4489 16.421 10.6397 16.2803 10.7803C16.1397 10.921 15.9489 11 15.75 11H8.25C8.05109 11 7.86032 10.921 7.71967 10.7803C7.57902 10.6397 7.5 10.4489 7.5 10.25C7.5 10.0511 7.57902 9.86032 7.71967 9.71967C7.86032 9.57902 8.05109 9.5 8.25 9.5ZM1.2 0.5C0.88174 0.5 0.576516 0.626428 0.351472 0.851472C0.126428 1.07652 0 1.38174 0 1.7L0 3.5C0 3.81826 0.126428 4.12348 0.351472 4.34853C0.576516 4.57357 0.88174 4.7 1.2 4.7H22.8C23.1183 4.7 23.4235 4.57357 23.6485 4.34853C23.8736 4.12348 24 3.81826 24 3.5V1.7C24 1.38174 23.8736 1.07652 23.6485 0.851472C23.4235 0.626428 23.1183 0.5 22.8 0.5H1.2Z" fill="#EDD66B"/>
</svg>
