<svg width="24" height="19" viewBox="0 0 24 19" fill="none" xmlns="http://www.w3.org/2000/svg">
<path d="M0.075 2.3636C0.226227 1.69213 0.597983 1.0926 1.12938 0.663189C1.66078 0.233782 2.32033 -4.63515e-05 3 6.89189e-09H21C21.6797 -4.63515e-05 22.3392 0.233782 22.8706 0.663189C23.402 1.0926 23.7738 1.69213 23.925 2.3636L12 9.74928L0.075 2.3636ZM0 4.09944V14.8975L8.7045 9.48936L0 4.09944ZM10.1415 10.3816L0.2865 16.5026C0.52999 17.0229 0.91429 17.4624 1.39467 17.77C1.87505 18.0776 2.43176 18.2405 3 18.24H21C21.5681 18.2401 22.1246 18.0768 22.6048 17.7689C23.0849 17.4611 23.4688 17.0214 23.712 16.5011L13.857 10.3801L12 11.5307L10.1415 10.3801V10.3816ZM15.2955 9.49088L24 14.8975V4.09944L15.2955 9.48936V9.49088Z" fill="#EDD66B"/>
</svg>
